<?xml version="1.0" encoding="UTF-8" ?>
<!DOCTYPE svg PUBLIC "-//W3C//DTD SVG 1.1//EN" "http://www.w3.org/Graphics/SVG/1.1/DTD/svg11.dtd">
<svg width="434pt" height="475pt" viewBox="0 0 434 475" version="1.1" xmlns="http://www.w3.org/2000/svg">
<g id="#6485deff">
<path fill="#6485de" stroke="#6485de" stroke-width="0.09375" opacity="1.00" d=" M 216.36 0.00 L 217.55 0.00 C 220.26 3.04 224.11 4.54 227.65 6.35 C 234.54 9.56 240.85 13.85 247.37 17.73 C 249.71 18.84 251.98 20.08 254.24 21.34 C 252.13 23.18 250.02 25.01 248.03 26.97 C 247.72 27.26 247.11 27.83 246.80 28.12 C 237.30 21.92 226.43 18.13 217.11 11.58 C 214.21 9.59 211.28 7.65 208.30 5.77 C 211.12 4.04 213.88 2.19 216.36 0.00 Z" />
</g>
<g id="#60aaddff">
<path fill="#60aadd" stroke="#60aadd" stroke-width="0.09375" opacity="1.00" d=" M 185.10 19.50 C 192.48 14.34 200.15 9.61 208.30 5.77 C 211.28 7.65 214.21 9.59 217.11 11.58 C 209.76 15.73 202.46 19.98 194.95 23.83 C 191.76 22.17 188.46 20.75 185.10 19.50 Z" />
</g>
<g id="#000000ff">
<path fill="#000000" stroke="#000000" stroke-width="0.09375" opacity="1.00" d=" M 194.95 23.83 C 202.46 19.98 209.76 15.73 217.11 11.58 C 226.43 18.13 237.30 21.92 246.80 28.12 C 247.11 27.83 247.72 27.26 248.03 26.97 C 247.66 27.35 246.94 28.12 246.57 28.50 C 264.11 38.29 281.51 48.32 298.98 58.23 C 299.02 101.66 298.99 145.10 299.00 188.53 C 280.68 177.22 261.94 166.60 243.60 155.32 C 240.56 153.38 237.30 151.75 234.54 149.43 C 234.32 135.96 234.49 122.41 234.96 108.94 C 239.69 103.74 245.67 99.69 249.92 93.99 C 256.88 85.50 260.55 73.86 257.90 63.01 C 256.39 56.55 253.55 50.39 249.77 44.94 C 240.66 36.44 228.99 29.00 216.01 29.93 C 195.08 29.23 175.62 47.98 175.82 68.96 C 176.19 75.41 176.87 82.13 180.22 87.81 C 185.27 96.58 193.44 102.97 201.73 108.51 C 202.32 164.78 201.86 221.06 201.99 277.33 C 178.92 262.61 154.75 249.74 131.23 235.78 C 131.27 177.16 131.24 118.53 131.25 59.91 C 152.55 48.01 173.52 35.51 194.95 23.83 Z" />
<path fill="#000000" stroke="#000000" stroke-width="0.09375" opacity="1.00" d=" M 199.00 42.85 C 206.28 38.03 215.42 37.24 223.88 38.27 C 232.95 40.61 240.36 46.82 246.88 53.26 C 247.05 62.04 250.19 70.91 247.38 79.57 C 247.24 80.06 246.97 81.04 246.83 81.53 C 245.11 84.79 243.53 88.26 240.69 90.73 C 235.93 94.92 230.47 98.21 225.00 101.37 C 224.86 109.58 225.22 117.81 224.84 126.02 C 223.33 135.54 224.24 145.21 223.99 154.80 C 252.12 171.78 280.47 188.42 309.00 204.72 C 308.96 154.07 309.10 103.41 308.93 52.76 C 313.92 52.93 318.91 52.56 323.91 52.66 C 324.12 64.44 323.95 76.22 323.98 88.00 C 324.04 93.22 323.64 98.48 324.53 103.65 C 325.18 107.07 326.04 110.44 326.92 113.80 C 326.95 114.00 327.01 114.39 327.04 114.59 C 349.23 125.63 369.62 139.82 391.01 152.25 C 391.16 156.19 390.76 160.11 390.17 164.00 C 389.73 170.59 390.12 177.19 390.00 183.79 C 390.00 198.28 390.00 212.76 390.00 227.25 C 390.41 237.36 388.97 247.63 391.10 257.60 C 403.30 263.29 413.21 274.10 417.10 287.07 C 417.48 296.68 413.65 306.14 407.69 313.56 C 404.00 318.22 398.76 321.24 393.52 323.83 C 388.08 325.15 382.39 326.92 376.82 325.31 C 363.68 322.59 354.21 311.77 347.88 300.60 C 347.94 294.16 347.50 287.45 350.27 281.44 C 353.98 271.27 361.97 263.40 371.00 257.77 C 371.00 252.51 371.00 247.25 371.00 241.99 C 370.90 217.85 371.20 193.70 370.85 169.56 C 370.72 167.39 370.19 165.26 369.88 163.11 C 355.54 152.19 339.13 144.44 324.00 134.70 C 323.99 149.40 324.01 164.09 323.99 178.79 C 324.01 200.88 324.00 222.96 324.00 245.05 C 324.00 260.68 324.00 276.30 324.00 291.93 C 323.99 312.57 324.01 333.21 323.99 353.85 C 324.01 362.61 323.99 371.38 324.00 380.15 C 324.02 393.96 323.96 407.77 324.02 421.59 C 319.03 421.46 314.04 421.45 309.05 421.35 C 308.92 359.90 309.06 298.44 308.98 236.99 C 308.54 231.49 307.69 226.01 308.00 220.47 C 279.74 204.35 252.29 186.84 224.00 170.78 C 224.22 179.20 223.41 187.68 224.64 196.05 C 224.99 199.02 224.99 202.02 224.99 205.02 C 224.95 259.97 225.00 314.92 224.97 369.86 C 230.37 372.64 235.73 375.65 240.18 379.82 C 244.47 384.02 247.30 389.55 248.55 395.40 C 249.38 401.50 249.60 408.01 246.70 413.65 C 243.05 421.85 236.05 428.42 227.56 431.42 C 226.23 431.77 224.89 432.12 223.56 432.48 C 217.17 433.49 210.37 433.46 204.38 430.72 C 194.01 426.30 185.99 416.31 184.67 405.02 C 183.75 400.47 185.24 395.93 186.16 391.51 C 188.16 387.57 190.15 383.53 193.31 380.37 C 198.19 375.84 203.88 372.21 210.00 369.58 C 210.05 347.87 210.01 326.16 210.00 304.45 C 182.32 289.94 155.17 274.42 127.12 260.61 C 125.97 259.48 124.81 258.35 123.65 257.23 C 123.24 257.70 122.41 258.65 122.00 259.13 C 122.07 312.66 121.87 366.19 122.09 419.72 C 115.77 419.73 109.31 419.93 103.09 419.08 L 103.57 418.77 C 103.70 418.38 103.95 417.59 104.08 417.20 C 103.94 400.51 104.02 383.82 104.01 367.13 C 94.13 360.97 84.09 355.08 74.26 348.83 C 73.35 348.25 72.44 347.66 71.54 347.09 C 71.06 347.02 70.09 346.88 69.61 346.82 C 63.11 341.98 55.09 339.34 49.29 333.55 C 46.48 330.70 46.08 326.62 45.22 322.93 L 45.95 322.91 C 46.08 308.61 45.96 294.31 46.00 280.02 C 46.01 265.69 45.98 251.37 46.01 237.04 C 46.00 233.42 46.00 229.80 46.01 226.19 C 38.85 222.19 31.95 217.68 25.76 212.27 C 23.91 210.61 22.42 208.60 21.14 206.49 C 20.95 205.22 20.77 203.96 20.59 202.70 C 19.19 195.62 19.97 188.32 22.19 181.50 C 25.18 174.09 29.80 166.92 36.99 163.02 C 41.31 160.36 46.25 159.02 51.27 158.59 C 53.70 157.99 56.22 157.97 58.65 158.54 C 60.30 158.91 61.95 159.26 63.59 159.69 C 64.06 159.80 65.01 160.04 65.49 160.16 C 70.28 162.60 75.16 165.22 78.73 169.34 C 82.22 173.20 84.50 177.91 86.80 182.52 C 86.91 183.01 87.14 184.00 87.25 184.49 C 87.69 185.81 88.10 187.14 88.52 188.46 C 89.02 191.81 89.11 195.20 89.14 198.58 C 84.46 209.56 76.29 219.13 66.00 225.23 C 66.03 242.30 65.91 259.38 66.06 276.46 C 65.82 283.26 64.44 289.99 65.00 296.83 C 65.06 298.28 65.16 299.74 65.27 301.20 C 66.73 307.86 65.72 314.73 65.99 321.48 C 78.79 328.83 91.37 336.57 104.01 344.21 C 103.98 323.66 104.10 303.12 103.94 282.58 C 103.97 278.77 103.77 274.91 104.77 271.20 C 105.03 268.25 105.11 265.28 104.63 262.36 C 103.15 253.99 104.79 245.46 103.48 237.07 C 103.46 236.77 103.43 236.16 103.42 235.86 C 104.81 228.35 103.29 220.68 104.39 213.14 C 105.39 206.84 105.30 200.37 104.29 194.08 C 103.34 184.65 104.73 175.12 103.60 165.71 L 103.30 164.12 C 103.30 163.36 103.31 162.61 103.33 161.86 L 103.63 160.29 C 104.27 156.23 103.97 152.10 104.00 148.01 C 104.01 123.00 103.98 98.00 104.03 72.99 C 104.05 66.95 103.59 60.85 104.83 54.90 C 110.30 54.93 115.76 54.81 121.23 54.82 C 120.81 61.88 121.03 68.96 120.99 76.03 C 121.01 131.21 120.99 186.40 121.00 241.58 C 126.05 244.01 131.05 246.56 136.16 248.88 C 139.31 250.67 142.42 252.53 145.59 254.28 C 147.26 255.26 148.90 256.29 150.56 257.29 C 153.65 258.79 156.62 260.51 159.57 262.26 C 161.94 263.54 164.24 264.92 166.57 266.28 C 169.65 267.81 172.60 269.56 175.57 271.28 C 181.01 274.10 186.25 277.27 191.58 280.27 C 197.76 283.84 204.03 287.24 210.01 291.14 C 209.99 228.23 210.01 165.33 210.00 102.42 C 203.99 99.61 197.93 96.53 193.20 91.77 C 185.72 84.63 182.44 73.58 184.49 63.48 C 186.68 55.20 191.60 47.38 199.00 42.85 M 47.38 176.15 C 42.43 178.24 39.06 182.50 37.18 187.44 C 36.98 189.10 36.80 190.77 36.50 192.42 C 36.70 194.16 36.91 195.89 37.17 197.63 C 39.06 202.46 43.03 206.11 47.30 208.87 C 51.02 209.63 54.98 210.82 58.68 209.32 C 59.17 209.21 60.13 208.99 60.61 208.88 C 65.20 206.80 68.14 202.66 70.89 198.64 C 72.00 195.76 72.18 192.68 71.89 189.63 C 71.50 188.53 71.13 187.43 70.76 186.33 C 68.68 182.24 65.35 179.02 61.53 176.55 C 57.09 174.46 51.96 174.49 47.38 176.15 M 378.61 274.10 C 377.53 274.50 376.46 274.88 375.38 275.25 C 373.05 276.59 370.36 277.63 368.81 279.95 C 367.41 281.99 366.35 284.24 365.17 286.41 C 363.67 290.50 364.81 294.66 366.13 298.63 C 368.54 302.65 372.09 305.84 376.38 307.74 C 377.46 308.11 378.54 308.50 379.61 308.90 C 387.61 310.02 396.30 305.28 398.94 297.48 C 399.22 292.46 399.08 287.39 397.68 282.53 C 397.38 281.31 397.09 280.10 396.80 278.88 C 395.43 277.95 394.05 277.03 392.67 276.13 C 388.08 274.85 383.43 273.44 378.61 274.10 Z" />
<path fill="#000000" stroke="#000000" stroke-width="0.09375" opacity="1.00" d=" M 234.52 187.19 C 255.85 200.15 277.28 212.94 298.97 225.26 C 299.15 288.94 298.71 352.62 299.28 416.29 C 272.01 432.13 244.27 447.14 217.08 463.10 C 197.12 452.19 178.03 439.77 157.96 429.06 C 150.27 424.90 142.30 421.31 134.42 417.57 C 131.48 393.87 132.79 369.83 132.74 345.98 C 133.31 327.66 132.70 309.32 131.31 291.04 C 130.91 284.84 132.27 278.46 136.08 273.45 C 156.23 288.45 179.76 297.75 201.42 310.21 C 201.57 327.76 201.51 345.30 201.45 362.84 C 191.14 368.96 181.11 377.34 177.28 389.10 C 174.40 398.30 174.37 408.60 178.58 417.40 C 184.59 430.63 197.57 440.74 212.13 442.37 C 219.46 442.91 227.08 442.19 233.83 439.07 C 248.69 432.35 258.92 416.35 258.48 399.99 C 258.03 391.79 255.16 383.59 249.79 377.30 C 245.39 372.08 239.98 367.85 234.55 363.76 C 234.45 304.90 234.50 246.04 234.52 187.19 Z" />
</g>
<g id="#73ecffff">
<path fill="#73ecff" stroke="#73ecff" stroke-width="0.09375" opacity="1.00" d=" M 128.10 51.10 C 147.37 41.06 165.85 29.57 185.10 19.50 C 188.46 20.75 191.76 22.17 194.95 23.83 C 173.52 35.51 152.55 48.01 131.25 59.91 C 131.24 118.53 131.27 177.16 131.23 235.78 C 154.75 249.74 178.92 262.61 201.99 277.33 C 201.86 221.06 202.32 164.78 201.73 108.51 C 193.44 102.97 185.27 96.58 180.22 87.81 C 176.87 82.13 176.19 75.41 175.82 68.96 C 175.62 47.98 195.08 29.23 216.01 29.93 C 228.99 29.00 240.66 36.44 249.77 44.94 C 248.69 47.67 247.60 50.41 246.88 53.26 C 240.36 46.82 232.95 40.61 223.88 38.27 C 215.42 37.24 206.28 38.03 199.00 42.85 C 191.60 47.38 186.68 55.20 184.49 63.48 C 182.44 73.58 185.72 84.63 193.20 91.77 C 197.93 96.53 203.99 99.61 210.00 102.42 C 210.01 165.33 209.99 228.23 210.01 291.14 C 204.03 287.24 197.76 283.84 191.58 280.27 C 186.25 277.27 181.01 274.10 175.57 271.28 C 172.60 269.56 169.65 267.81 166.57 266.28 C 164.24 264.92 161.94 263.54 159.57 262.26 C 156.62 260.51 153.65 258.79 150.56 257.29 C 148.90 256.29 147.26 255.26 145.59 254.28 C 142.42 252.53 139.31 250.67 136.16 248.88 C 132.27 246.06 128.37 243.26 124.28 240.73 C 124.40 237.17 124.51 233.60 124.51 230.04 C 124.47 183.02 124.53 135.99 124.48 88.97 C 124.16 76.29 123.22 63.13 128.10 51.10 Z" />
<path fill="#73ecff" stroke="#73ecff" stroke-width="0.09375" opacity="1.00" d=" M 1.67 111.63 C 3.55 112.09 5.44 112.53 7.35 112.83 C 7.55 123.55 6.85 134.26 6.71 144.98 C 6.43 158.77 6.36 172.57 6.56 186.36 C 6.61 189.12 6.73 191.88 6.99 194.63 C 5.24 194.62 3.50 194.62 1.76 194.62 C 1.68 166.96 1.87 139.29 1.67 111.63 Z" />
<path fill="#73ecff" stroke="#73ecff" stroke-width="0.09375" opacity="1.00" d=" M 122.00 259.13 C 122.41 258.65 123.24 257.70 123.65 257.23 C 124.81 258.35 125.97 259.48 127.12 260.61 C 126.08 267.01 124.81 273.58 126.06 280.04 C 126.77 283.57 129.10 286.48 130.06 289.92 C 129.49 295.93 127.26 301.64 126.45 307.63 C 124.73 315.97 125.27 324.51 125.83 332.94 C 126.63 361.43 124.73 389.92 125.58 418.40 C 126.79 420.13 128.01 421.85 129.30 423.53 C 126.93 422.19 124.53 420.92 122.09 419.72 C 121.87 366.19 122.07 312.66 122.00 259.13 Z" />
</g>
<g id="#6a51ecff">
<path fill="#6a51ec" stroke="#6a51ec" stroke-width="0.09375" opacity="1.00" d=" M 254.24 21.34 C 272.36 31.99 290.67 42.34 308.93 52.76 C 309.10 103.41 308.96 154.07 309.00 204.72 C 280.47 188.42 252.12 171.78 223.99 154.80 C 224.24 145.21 223.33 135.54 224.84 126.02 C 225.22 117.81 224.86 109.58 225.00 101.37 C 230.47 98.21 235.93 94.92 240.69 90.73 C 243.53 88.26 245.11 84.79 246.83 81.53 C 246.97 81.04 247.24 80.06 247.38 79.57 C 250.19 70.91 247.05 62.04 246.88 53.26 C 247.60 50.41 248.69 47.67 249.77 44.94 C 253.55 50.39 256.39 56.55 257.90 63.01 C 260.55 73.86 256.88 85.50 249.92 93.99 C 245.67 99.69 239.69 103.74 234.96 108.94 C 234.49 122.41 234.32 135.96 234.54 149.43 C 237.30 151.75 240.56 153.38 243.60 155.32 C 261.94 166.60 280.68 177.22 299.00 188.53 C 298.99 145.10 299.02 101.66 298.98 58.23 C 281.51 48.32 264.11 38.29 246.57 28.50 C 246.94 28.12 247.66 27.35 248.03 26.97 C 250.02 25.01 252.13 23.18 254.24 21.34 Z" />
</g>
<g id="#39a98aff">
<path fill="#39a98a" stroke="#39a98a" stroke-width="0.09375" opacity="1.00" d=" M 121.23 54.82 C 123.66 53.87 125.84 52.39 128.10 51.10 C 123.22 63.13 124.16 76.29 124.48 88.97 C 124.53 135.99 124.47 183.02 124.51 230.04 C 124.51 233.60 124.40 237.17 124.28 240.73 C 128.37 243.26 132.27 246.06 136.16 248.88 C 131.05 246.56 126.05 244.01 121.00 241.58 C 120.99 186.40 121.01 131.21 120.99 76.03 C 121.03 68.96 120.81 61.88 121.23 54.82 Z" />
</g>
<g id="#57edd1ff">
<path fill="#57edd1" stroke="#57edd1" stroke-width="0.09375" opacity="1.00" d=" M 323.77 50.02 C 359.84 70.37 395.80 90.92 431.53 111.86 C 430.08 112.64 428.64 113.43 427.21 114.21 C 420.18 111.21 413.18 108.13 406.31 104.77 C 397.79 100.68 388.60 97.39 379.02 97.74 C 365.66 98.29 352.23 95.70 338.95 97.94 C 335.97 98.11 334.50 100.93 333.17 103.19 C 331.23 106.81 329.08 110.31 326.92 113.80 C 326.04 110.44 325.18 107.07 324.53 103.65 C 323.64 98.48 324.04 93.22 323.98 88.00 C 323.95 76.22 324.12 64.44 323.91 52.66 C 323.87 52.00 323.81 50.68 323.77 50.02 Z" />
</g>
<g id="#58edd2ff">
<path fill="#58edd2" stroke="#58edd2" stroke-width="0.09375" opacity="1.00" d=" M 1.67 111.63 C 35.95 91.36 70.56 71.63 105.17 51.91 C 105.09 52.66 104.92 54.15 104.83 54.90 C 103.59 60.85 104.05 66.95 104.03 72.99 C 103.98 98.00 104.01 123.00 104.00 148.01 C 103.97 152.10 104.27 156.23 103.63 160.29 L 103.33 161.86 C 103.28 158.94 103.21 156.02 103.13 153.10 C 102.48 134.35 98.16 115.94 92.86 98.01 C 79.57 97.81 66.27 97.61 52.98 97.82 C 36.48 97.90 22.64 108.11 7.35 112.83 C 5.44 112.53 3.55 112.09 1.67 111.63 Z" />
</g>
<g id="#5ad6d5ff">
<path fill="#5ad6d5" stroke="#5ad6d5" stroke-width="0.09375" opacity="1.00" d=" M 338.95 97.94 C 352.23 95.70 365.66 98.29 379.02 97.74 C 388.60 97.39 397.79 100.68 406.31 104.77 C 413.18 108.13 420.18 111.21 427.21 114.21 C 426.70 125.90 426.13 137.59 426.28 149.29 C 418.23 148.19 410.12 146.11 401.94 147.14 C 397.85 147.64 394.36 150.02 391.01 152.25 C 369.62 139.82 349.23 125.63 327.04 114.59 C 327.01 114.39 326.95 114.00 326.92 113.80 C 329.08 110.31 331.23 106.81 333.17 103.19 C 334.50 100.93 335.97 98.11 338.95 97.94 Z" />
</g>
<g id="#5ad3d6ff">
<path fill="#5ad3d6" stroke="#5ad3d6" stroke-width="0.09375" opacity="1.00" d=" M 7.35 112.83 C 22.64 108.11 36.48 97.90 52.98 97.82 C 66.27 97.61 79.57 97.81 92.86 98.01 C 98.16 115.94 102.48 134.35 103.13 153.10 C 99.01 150.87 95.27 147.83 90.80 146.28 C 85.54 145.52 80.26 147.05 74.97 146.98 C 52.21 147.08 29.37 147.67 6.71 144.98 C 6.85 134.26 7.55 123.55 7.35 112.83 Z" />
</g>
<g id="#6db5fbff">
<path fill="#6db5fb" stroke="#6db5fb" stroke-width="0.09375" opacity="1.00" d=" M 431.53 111.86 L 431.95 112.17 C 432.42 124.12 431.34 136.05 431.56 148.00 C 431.57 183.33 431.54 218.67 431.58 254.00 C 431.73 258.03 431.02 262.01 430.99 266.03 C 430.98 282.84 431.04 299.65 430.97 316.46 C 428.07 303.63 426.78 290.44 426.74 277.29 C 426.62 258.07 425.63 238.87 425.03 219.66 C 424.73 208.83 424.94 198.00 425.06 187.18 C 425.35 174.54 426.52 161.93 426.28 149.29 C 426.13 137.59 426.70 125.90 427.21 114.21 C 428.64 113.43 430.08 112.64 431.53 111.86 Z" />
</g>
<g id="#5cc0daff">
<path fill="#5cc0da" stroke="#5cc0da" stroke-width="0.09375" opacity="1.00" d=" M 324.00 134.70 C 339.13 144.44 355.54 152.19 369.88 163.11 C 370.19 165.26 370.72 167.39 370.85 169.56 C 368.97 176.10 367.73 182.80 365.94 189.36 C 360.59 184.35 356.71 176.62 348.88 175.24 C 341.42 174.52 336.12 180.88 329.68 183.40 C 327.38 182.55 325.81 180.36 323.99 178.79 C 324.01 164.09 323.99 149.40 324.00 134.70 Z" />
<path fill="#5cc0da" stroke="#5cc0da" stroke-width="0.09375" opacity="1.00" d=" M 6.71 144.98 C 29.37 147.67 52.21 147.08 74.97 146.98 C 80.26 147.05 85.54 145.52 90.80 146.28 C 95.27 147.83 99.01 150.87 103.13 153.10 C 103.21 156.02 103.28 158.94 103.33 161.86 C 103.31 162.61 103.30 163.36 103.30 164.12 C 102.75 172.82 102.17 181.97 97.57 189.65 C 95.60 193.32 92.34 196.02 89.14 198.58 C 89.11 195.20 89.02 191.81 88.52 188.46 C 88.10 187.14 87.69 185.81 87.25 184.49 C 87.14 184.00 86.91 183.01 86.80 182.52 C 84.50 177.91 82.22 173.20 78.73 169.34 C 75.16 165.22 70.28 162.60 65.49 160.16 C 65.01 160.04 64.06 159.80 63.59 159.69 C 61.95 159.26 60.30 158.91 58.65 158.54 C 56.22 157.97 53.70 157.99 51.27 158.59 C 46.25 159.02 41.31 160.36 36.99 163.02 C 29.80 166.92 25.18 174.09 22.19 181.50 C 19.97 188.32 19.19 195.62 20.59 202.70 C 20.77 203.96 20.95 205.22 21.14 206.49 C 14.93 200.81 11.26 193.20 6.56 186.36 C 6.36 172.57 6.43 158.77 6.71 144.98 Z" />
</g>
<g id="#5dbcdcff">
<path fill="#5dbcdc" stroke="#5dbcdc" stroke-width="0.09375" opacity="1.00" d=" M 391.01 152.25 C 394.36 150.02 397.85 147.64 401.94 147.14 C 410.12 146.11 418.23 148.19 426.28 149.29 C 426.52 161.93 425.35 174.54 425.06 187.18 C 413.30 186.81 401.75 184.28 390.00 183.79 C 390.12 177.19 389.73 170.59 390.17 164.00 C 390.76 160.11 391.16 156.19 391.01 152.25 Z" />
</g>
<g id="#6195e3ff">
<path fill="#6195e3" stroke="#6195e3" stroke-width="0.09375" opacity="1.00" d=" M 103.30 164.12 L 103.60 165.71 C 104.73 175.12 103.34 184.65 104.29 194.08 C 105.30 200.37 105.39 206.84 104.39 213.14 C 103.29 220.68 104.81 228.35 103.42 235.86 C 103.43 236.16 103.46 236.77 103.48 237.07 C 100.54 249.29 100.45 261.98 97.63 274.21 C 96.60 270.03 96.30 265.57 94.36 261.67 C 89.95 260.93 85.47 261.57 81.04 261.76 C 78.33 262.05 75.13 261.86 73.14 264.08 C 69.80 267.56 68.27 272.27 66.06 276.46 C 65.91 259.38 66.03 242.30 66.00 225.23 C 76.29 219.13 84.46 209.56 89.14 198.58 C 92.34 196.02 95.60 193.32 97.57 189.65 C 102.17 181.97 102.75 172.82 103.30 164.12 Z" />
</g>
<g id="#60a0e0ff">
<path fill="#60a0e0" stroke="#60a0e0" stroke-width="0.09375" opacity="1.00" d=" M 365.94 189.36 C 367.73 182.80 368.97 176.10 370.85 169.56 C 371.20 193.70 370.90 217.85 371.00 241.99 C 355.39 243.84 339.67 244.10 324.00 245.05 C 324.00 222.96 324.01 200.88 323.99 178.79 C 325.81 180.36 327.38 182.55 329.68 183.40 C 336.12 180.88 341.42 174.52 348.88 175.24 C 356.71 176.62 360.59 184.35 365.94 189.36 Z" />
</g>
<g id="#6290e4ff">
<path fill="#6290e4" stroke="#6290e4" stroke-width="0.09375" opacity="1.00" d=" M 224.00 170.78 C 252.29 186.84 279.74 204.35 308.00 220.47 C 307.69 226.01 308.54 231.49 308.98 236.99 C 309.06 298.44 308.92 359.90 309.05 421.35 C 278.46 439.21 247.58 456.57 216.88 474.23 C 187.85 457.05 157.87 441.49 129.30 423.53 C 128.01 421.85 126.79 420.13 125.58 418.40 C 124.73 389.92 126.63 361.43 125.83 332.94 C 125.27 324.51 124.73 315.97 126.45 307.63 C 127.26 301.64 129.49 295.93 130.06 289.92 C 129.10 286.48 126.77 283.57 126.06 280.04 C 124.81 273.58 126.08 267.01 127.12 260.61 C 155.17 274.42 182.32 289.94 210.00 304.45 C 210.01 326.16 210.05 347.87 210.00 369.58 C 203.88 372.21 198.19 375.84 193.31 380.37 C 190.15 383.53 188.16 387.57 186.16 391.51 C 185.24 395.93 183.75 400.47 184.67 405.02 C 185.99 416.31 194.01 426.30 204.38 430.72 C 210.37 433.46 217.17 433.49 223.56 432.48 C 224.89 432.12 226.23 431.77 227.56 431.42 C 236.05 428.42 243.05 421.85 246.70 413.65 C 249.60 408.01 249.38 401.50 248.55 395.40 C 247.30 389.55 244.47 384.02 240.18 379.82 C 235.73 375.65 230.37 372.64 224.97 369.86 C 225.00 314.92 224.95 259.97 224.99 205.02 C 224.99 202.02 224.99 199.02 224.64 196.05 C 223.41 187.68 224.22 179.20 224.00 170.78 M 234.52 187.19 C 234.50 246.04 234.45 304.90 234.55 363.76 C 239.98 367.85 245.39 372.08 249.79 377.30 C 255.16 383.59 258.03 391.79 258.48 399.99 C 258.92 416.35 248.69 432.35 233.83 439.07 C 227.08 442.19 219.46 442.91 212.13 442.37 C 197.57 440.74 184.59 430.63 178.58 417.40 C 174.37 408.60 174.40 398.30 177.28 389.10 C 181.11 377.34 191.14 368.96 201.45 362.84 C 201.51 345.30 201.57 327.76 201.42 310.21 C 179.76 297.75 156.23 288.45 136.08 273.45 C 132.27 278.46 130.91 284.84 131.31 291.04 C 132.70 309.32 133.31 327.66 132.74 345.98 C 132.79 369.83 131.48 393.87 134.42 417.57 C 142.30 421.31 150.27 424.90 157.96 429.06 C 178.03 439.77 197.12 452.19 217.08 463.10 C 244.27 447.14 272.01 432.13 299.28 416.29 C 298.71 352.62 299.15 288.94 298.97 225.26 C 277.28 212.94 255.85 200.15 234.52 187.19 Z" />
<path fill="#6290e4" stroke="#6290e4" stroke-width="0.09375" opacity="1.00" d=" M 390.00 227.25 C 401.41 223.67 413.06 220.55 425.03 219.66 C 425.63 238.87 426.62 258.07 426.74 277.29 C 423.30 280.33 420.12 283.63 417.10 287.07 C 413.21 274.10 403.30 263.29 391.10 257.60 C 388.97 247.63 390.41 237.36 390.00 227.25 Z" />
</g>
<g id="#5faddeff">
<path fill="#5fadde" stroke="#5fadde" stroke-width="0.09375" opacity="1.00" d=" M 47.38 176.15 C 51.96 174.49 57.09 174.46 61.53 176.55 C 65.35 179.02 68.68 182.24 70.76 186.33 C 71.13 187.43 71.50 188.53 71.89 189.63 C 72.18 192.68 72.00 195.76 70.89 198.64 C 68.14 202.66 65.20 206.80 60.61 208.88 C 60.13 208.99 59.17 209.21 58.68 209.32 C 54.98 210.82 51.02 209.63 47.30 208.87 C 43.03 206.11 39.06 202.46 37.17 197.63 C 36.91 195.89 36.70 194.16 36.50 192.42 C 36.80 190.77 36.98 189.10 37.18 187.44 C 39.06 182.50 42.43 178.24 47.38 176.15 Z" />
</g>
<g id="#5fa9dfff">
<path fill="#5fa9df" stroke="#5fa9df" stroke-width="0.09375" opacity="1.00" d=" M 390.00 183.79 C 401.75 184.28 413.30 186.81 425.06 187.18 C 424.94 198.00 424.73 208.83 425.03 219.66 C 413.06 220.55 401.41 223.67 390.00 227.25 C 390.00 212.76 390.00 198.28 390.00 183.79 Z" />
</g>
<g id="#609ae1ff">
<path fill="#609ae1" stroke="#609ae1" stroke-width="0.09375" opacity="1.00" d=" M 6.56 186.36 C 11.26 193.20 14.93 200.81 21.14 206.49 C 22.42 208.60 23.91 210.61 25.76 212.27 C 31.95 217.68 38.85 222.19 46.01 226.19 C 46.00 229.80 46.00 233.42 46.01 237.04 C 44.38 238.38 42.83 239.91 40.89 240.81 C 38.89 240.91 36.91 240.51 34.96 240.14 C 26.25 238.31 17.42 237.25 8.67 235.67 C 9.20 226.42 7.90 217.22 7.90 207.98 C 7.88 203.51 7.48 199.06 6.99 194.63 C 6.73 191.88 6.61 189.12 6.56 186.36 Z" />
</g>
<g id="#6f9afeff">
<path fill="#6f9afe" stroke="#6f9afe" stroke-width="0.09375" opacity="1.00" d=" M 1.76 194.62 C 3.50 194.62 5.24 194.62 6.99 194.63 C 7.48 199.06 7.88 203.51 7.90 207.98 C 7.90 217.22 9.20 226.42 8.67 235.67 C 8.13 252.53 7.99 269.41 7.37 286.27 C 7.05 295.32 6.78 304.39 5.65 313.39 C 4.53 307.37 3.52 301.33 2.02 295.40 C 1.38 281.27 1.70 267.13 1.10 253.01 C 1.84 233.56 1.10 214.07 1.76 194.62 Z" />
</g>
<g id="#6287e4ff">
<path fill="#6287e4" stroke="#6287e4" stroke-width="0.09375" opacity="1.00" d=" M 7.37 286.27 C 7.99 269.41 8.13 252.53 8.67 235.67 C 17.42 237.25 26.25 238.31 34.96 240.14 C 36.91 240.51 38.89 240.91 40.89 240.81 C 42.83 239.91 44.38 238.38 46.01 237.04 C 45.98 251.37 46.01 265.69 46.00 280.02 C 33.39 280.24 20.83 278.67 8.22 278.94 C 7.91 281.38 7.57 283.82 7.37 286.27 Z" />
</g>
<g id="#6477e7ff">
<path fill="#6477e7" stroke="#6477e7" stroke-width="0.09375" opacity="1.00" d=" M 103.48 237.07 C 104.79 245.46 103.15 253.99 104.63 262.36 C 105.11 265.28 105.03 268.25 104.77 271.20 C 103.77 274.91 103.97 278.77 103.94 282.58 C 100.92 288.69 98.60 297.22 90.90 298.72 C 82.24 299.82 73.59 297.70 65.00 296.83 C 64.44 289.99 65.82 283.26 66.06 276.46 C 68.27 272.27 69.80 267.56 73.14 264.08 C 75.13 261.86 78.33 262.05 81.04 261.76 C 85.47 261.57 89.95 260.93 94.36 261.67 C 96.30 265.57 96.60 270.03 97.63 274.21 C 100.45 261.98 100.54 249.29 103.48 237.07 Z" />
</g>
<g id="#6386e6ff">
<path fill="#6386e6" stroke="#6386e6" stroke-width="0.09375" opacity="1.00" d=" M 324.00 245.05 C 339.67 244.10 355.39 243.84 371.00 241.99 C 371.00 247.25 371.00 252.51 371.00 257.77 C 361.97 263.40 353.98 271.27 350.27 281.44 C 347.50 287.45 347.94 294.16 347.88 300.60 C 345.18 296.58 342.59 292.32 338.92 289.11 C 333.83 289.26 328.96 290.97 324.00 291.93 C 324.00 276.30 324.00 260.68 324.00 245.05 Z" />
</g>
<g id="#6572e8ff">
<path fill="#6572e8" stroke="#6572e8" stroke-width="0.09375" opacity="1.00" d=" M 378.61 274.10 C 383.43 273.44 388.08 274.85 392.67 276.13 C 394.05 277.03 395.43 277.95 396.80 278.88 C 397.09 280.10 397.38 281.31 397.68 282.53 C 399.08 287.39 399.22 292.46 398.94 297.48 C 396.30 305.28 387.61 310.02 379.61 308.90 C 378.54 308.50 377.46 308.11 376.38 307.74 C 372.09 305.84 368.54 302.65 366.13 298.63 C 364.81 294.66 363.67 290.50 365.17 286.41 C 366.35 284.24 367.41 281.99 368.81 279.95 C 370.36 277.63 373.05 276.59 375.38 275.25 C 376.46 274.88 377.53 274.50 378.61 274.10 Z" />
</g>
<g id="#685beeff">
<path fill="#685bee" stroke="#685bee" stroke-width="0.09375" opacity="1.00" d=" M 417.10 287.07 C 420.12 283.63 423.30 280.33 426.74 277.29 C 426.78 290.44 428.07 303.63 430.97 316.46 C 431.04 320.70 430.87 324.94 431.20 329.17 C 432.30 332.33 431.99 335.72 432.05 339.02 C 431.99 345.19 432.05 351.38 433.03 357.50 C 402.08 351.40 369.93 349.64 338.84 355.80 C 335.89 356.36 332.98 357.37 329.96 357.42 C 327.73 356.71 325.91 355.13 323.99 353.85 C 324.01 333.21 323.99 312.57 324.00 291.93 C 328.96 290.97 333.83 289.26 338.92 289.11 C 342.59 292.32 345.18 296.58 347.88 300.60 C 354.21 311.77 363.68 322.59 376.82 325.31 C 382.39 326.92 388.08 325.15 393.52 323.83 C 398.76 321.24 404.00 318.22 407.69 313.56 C 413.65 306.14 417.48 296.68 417.10 287.07 Z" />
</g>
<g id="#666beaff">
<path fill="#666bea" stroke="#666bea" stroke-width="0.09375" opacity="1.00" d=" M 8.22 278.94 C 20.83 278.67 33.39 280.24 46.00 280.02 C 45.96 294.31 46.08 308.61 45.95 322.91 L 45.22 322.93 C 31.57 322.53 18.12 325.41 5.06 329.11 C 5.73 323.90 6.05 318.63 5.65 313.39 C 6.78 304.39 7.05 295.32 7.37 286.27 C 7.57 283.82 7.91 281.38 8.22 278.94 Z" />
</g>
<g id="#6666ebff">
<path fill="#6666eb" stroke="#6666eb" stroke-width="0.09375" opacity="1.00" d=" M 90.90 298.72 C 98.60 297.22 100.92 288.69 103.94 282.58 C 104.10 303.12 103.98 323.66 104.01 344.21 C 91.37 336.57 78.79 328.83 65.99 321.48 C 65.72 314.73 66.73 307.86 65.27 301.20 C 65.16 299.74 65.06 298.28 65.00 296.83 C 73.59 297.70 82.24 299.82 90.90 298.72 Z" />
</g>
<g id="#6856eeff">
<path fill="#6856ee" stroke="#6856ee" stroke-width="0.09375" opacity="1.00" d=" M 2.02 295.40 C 3.52 301.33 4.53 307.37 5.65 313.39 C 6.05 318.63 5.73 323.90 5.06 329.11 C 18.12 325.41 31.57 322.53 45.22 322.93 C 46.08 326.62 46.48 330.70 49.29 333.55 C 55.09 339.34 63.11 341.98 69.61 346.82 C 70.09 346.88 71.06 347.02 71.54 347.09 C 72.44 347.66 73.35 348.25 74.26 348.83 C 73.24 350.96 72.22 353.09 71.21 355.23 C 62.12 355.28 53.10 353.73 44.00 353.82 C 34.11 353.94 24.08 353.23 14.35 355.44 C 9.74 356.19 5.51 358.18 1.19 359.86 C 0.90 359.81 0.30 359.72 0.00 359.68 L 0.00 359.24 L 0.43 359.05 C 0.53 358.72 0.74 358.07 0.84 357.74 C 1.51 336.97 0.09 316.13 2.02 295.40 Z" />
</g>
<g id="#6a43f1ff">
<path fill="#6a43f1" stroke="#6a43f1" stroke-width="0.09375" opacity="1.00" d=" M 74.26 348.83 C 84.09 355.08 94.13 360.97 104.01 367.13 C 104.02 383.82 103.94 400.51 104.08 417.20 C 103.95 417.59 103.70 418.38 103.57 418.77 L 103.09 419.08 C 102.51 418.72 101.34 418.02 100.75 417.67 C 100.62 417.58 100.36 417.42 100.24 417.34 C 67.11 398.37 33.65 379.96 1.19 359.86 C 5.51 358.18 9.74 356.19 14.35 355.44 C 24.08 353.23 34.11 353.94 44.00 353.82 C 53.10 353.73 62.12 355.28 71.21 355.23 C 72.22 353.09 73.24 350.96 74.26 348.83 Z" />
</g>
<g id="#6a47f1ff">
<path fill="#6a47f1" stroke="#6a47f1" stroke-width="0.09375" opacity="1.00" d=" M 338.84 355.80 C 369.93 349.64 402.08 351.40 433.03 357.50 C 430.82 359.81 428.20 361.68 425.59 363.51 C 411.81 373.10 396.47 380.11 382.18 388.88 C 381.74 385.61 381.27 382.35 380.79 379.09 C 361.86 378.91 342.87 378.31 324.00 380.15 C 323.99 371.38 324.01 362.61 323.99 353.85 C 325.91 355.13 327.73 356.71 329.96 357.42 C 332.98 357.37 335.89 356.36 338.84 355.80 Z" />
</g>
<g id="#6b3af3ff">
<path fill="#6b3af3" stroke="#6b3af3" stroke-width="0.09375" opacity="1.00" d=" M 324.00 380.15 C 342.87 378.31 361.86 378.91 380.79 379.09 C 381.27 382.35 381.74 385.61 382.18 388.88 C 362.79 400.00 343.36 411.04 324.06 422.29 L 324.02 421.59 C 323.96 407.77 324.02 393.96 324.00 380.15 Z" />
</g>
<g id="#150d308f">
<path fill="#150d30" stroke="#150d30" stroke-width="0.09375" opacity="0.56" d=" M 100.24 417.34 C 100.36 417.42 100.62 417.58 100.75 417.67 C 100.62 417.58 100.36 417.42 100.24 417.34 Z" />
</g>
</svg>
